<svg xmlns="http://www.w3.org/2000/svg" viewBox="0 0 64 64" width="64" height="64" shape-rendering="crispEdges">
  <defs>
    <filter id="expGlowCenter" x="-20%" y="-20%" width="140%" height="140%">
      <feGaussianBlur stdDeviation="1.5" result="blur" />
      <feComposite in="SourceGraphic" in2="blur" operator="over" />
    </filter>
  </defs>

  <polygon points="32,2 42,14 54,10 50,22 62,32 50,42 54,54 42,50 32,62 22,50 10,54 14,42 2,32 14,22 10,10 22,14" fill="#8f1500" />
  <polygon points="32,6 39,16 50,14 46,24 58,32 46,40 50,50 39,48 32,58 25,48 14,50 18,40 6,32 18,24 14,14 25,16" fill="#d93800" />

  <polygon points="32,12 40,20 48,18 44,26 52,32 44,38 48,46 40,44 32,52 24,44 16,46 20,38 12,32 20,26 16,18 24,20" fill="#ff7700" />
  <polygon points="32,18 38,24 44,22 41,28 46,32 41,36 44,42 38,40 32,46 26,40 20,42 23,36 18,32 23,28 20,22 26,24" fill="#ffb700" />

  <g filter="url(#expGlowCenter)">
    <polygon points="32,22 42,32 32,42 22,32" fill="#ffe066" />
    <polygon points="32,26 38,32 32,38 26,32" fill="#ffffff" />
    <line x1="32" y1="10" x2="32" y2="54" stroke="#ffffff" stroke-width="1.5" opacity="0.8" />
    <line x1="10" y1="32" x2="54" y2="32" stroke="#ffffff" stroke-width="1.5" opacity="0.8" />
  </g>

  <rect x="20" y="8" width="2" height="2" fill="#ffaa00" />
  <rect x="42" y="8" width="2" height="2" fill="#ffaa00" />
  <rect x="54" y="20" width="2" height="2" fill="#ffaa00" />
  <rect x="54" y="42" width="2" height="2" fill="#ffaa00" />
  <rect x="8" y="20" width="2" height="2" fill="#ffaa00" />
  <rect x="8" y="42" width="2" height="2" fill="#ffaa00" />
</svg>
