<svg xmlns="http://www.w3.org/2000/svg" viewBox="0 0 64 64" width="64" height="64" shape-rendering="crispEdges">
  <defs>
    <filter id="stackGlow" x="-20%" y="-20%" width="140%" height="140%">
      <feGaussianBlur stdDeviation="1.2" result="blur" />
      <feComposite in="SourceGraphic" in2="blur" operator="over" />
    </filter>
  </defs>

  <rect width="64" height="64" fill="#08090d" />
  <rect x="2" y="2" width="60" height="60" fill="#1b1826" />
  <rect x="4" y="4" width="56" height="56" fill="#007a99" />

  <polygon points="4,4 12,4 4,12" fill="#4f3f26" />
  <polygon points="60,4 52,4 60,12" fill="#4f3f26" />
  <polygon points="4,60 12,60 4,52" fill="#332817" />
  <polygon points="60,60 52,60 60,52" fill="#332817" />
  <rect x="6" y="6" width="3" height="3" fill="#d4af37" />
  <rect x="55" y="6" width="3" height="3" fill="#d4af37" />
  <rect x="6" y="55" width="3" height="3" fill="#997819" />
  <rect x="55" y="55" width="3" height="3" fill="#997819" />

  <circle cx="32" cy="32" r="20" fill="#111c16" stroke="#1d3627" stroke-width="1.5" />

  <path d="M 24 16 Q 28 12 30 14" fill="none" stroke="#664e26" stroke-width="1.5" />
  <circle cx="24" cy="27" r="10" fill="#08090d" />
  <circle cx="24" cy="27" r="9" fill="#1b2126" />
  <polygon points="21,16 27,16 26,19 22,19" fill="#d4af37" />
  <polygon points="24,24 27,27 24,30 21,27" fill="#ff4800" />

  <path d="M 40 28 Q 44 24 46 26" fill="none" stroke="#664e26" stroke-width="1.5" />
  <circle cx="40" cy="39" r="10" fill="#08090d" />
  <circle cx="40" cy="39" r="9" fill="#1b1d26" />
  <polygon points="37,28 43,28 42,31 38,31" fill="#d4af37" />
  <polygon points="40,36 43,39 40,42 37,39" fill="#ff4800" />

  <g filter="url(#stackGlow)">
    <circle cx="31" cy="14" r="2" fill="#ffaa00" />
    <circle cx="31" cy="14" r="1" fill="#ffffff" />
    <circle cx="47" cy="26" r="2" fill="#ffaa00" />
    <circle cx="47" cy="26" r="1" fill="#ffffff" />
  </g>

  <g filter="url(#stackGlow)">
    <rect x="12" y="44" width="10" height="3" fill="#00ff88" />
    <rect x="15.5" y="40.5" width="3" height="10" fill="#00ff88" />
    <rect x="13" y="45" width="8" height="1" fill="#ffffff" />
    <rect x="16.5" y="41.5" width="1" height="8" fill="#ffffff" />
  </g>
</svg>
